<svg id="Capa_1" enable-background="new 0 0 512 512" height="512" viewBox="0 0 512 512" width="512" xmlns="http://www.w3.org/2000/svg"><g><path d="m158.041 139.994c7.846 0 15.363-6.899 15-15-.364-8.127-6.591-15-15-15-7.846 0-15.363 6.899-15 15 .364 8.127 6.591 15 15 15z"/><path d="m342.857 139.994c7.846 0 15.363-6.899 15-15-.364-8.127-6.591-15-15-15-7.846 0-15.363 6.899-15 15 .364 8.127 6.591 15 15 15z"/><path d="m455.596 15.009c0-8.284-6.716-15-15-15s-15 6.716-15 15c0 10.104-8.22 18.323-18.323 18.323h-10.113c-20.064-13.054-43.99-20.65-69.659-20.65h-143.015c-25.664 0-49.585 7.593-69.646 20.642h-10.113c-10.103 0-18.323-8.22-18.323-18.323 0-8.284-6.716-15-15-15s-15 6.716-15 15c0 19.872 12.06 36.975 29.243 44.389-18.262 22.142-29.243 50.5-29.243 81.375 0 41.259 19.615 78.017 50.003 101.458v43.12c0 102.01 82.991 185 185 185h45.389c27.008 25.793 63.579 41.657 103.787 41.657 8.284 0 15-6.716 15-15v-356.236c0-30.87-10.978-59.224-29.235-81.364 17.185-7.413 29.248-24.518 29.248-44.391zm-128.095 27.673c1.717 0 3.423.045 5.119.133-14.171 5.062-27.721 12.085-40.082 20.88-17.313 12.319-31.643 27.685-42.096 44.866-10.099-16.815-23.83-31.885-40.347-44.019-11.895-8.739-25-15.794-38.762-20.976 4.304-.579 8.693-.885 13.153-.885h143.015zm-241.097 98.082c0-31.305 14.742-59.23 37.648-77.2 51.886 3.541 98.45 39.072 111.893 86.088 1.839 6.434 7.718 10.87 14.41 10.876h.012c6.686 0 12.566-4.427 14.415-10.853 6.861-23.848 22.896-45.702 45.149-61.537 22.229-15.817 49.097-24.612 75.657-24.765l2.083-.012c23.055 17.963 37.912 45.979 37.912 77.403 0 54.083-44 98.082-98.082 98.082h-143.015c-54.083 0-98.082-43.999-98.082-98.082zm50.003 144.577v-25.869c14.854 6.038 31.083 9.374 48.079 9.374h105.726v92.783c0 28.838 8.167 55.802 22.299 78.712h-21.104c-85.467 0-155-69.532-155-155zm289.176 195.729c-59.318-7.408-105.371-58.148-105.371-119.441v-92.783h7.29c39.329 0 74.568-17.823 98.082-45.811z"/></g></svg>